<svg width="258" height="258" viewBox="0 0 258 258" fill="none" xmlns="http://www.w3.org/2000/svg">
<circle cx="129" cy="129" r="129" fill="#E75138"/>
<g clip-path="url(#clip0)">
<path d="M128.11 76.844C139.503 76.844 148.739 67.6081 148.739 56.2151C148.739 44.8221 139.503 35.5862 128.11 35.5862C116.717 35.5862 107.481 44.8221 107.481 56.2151C107.481 67.6081 116.717 76.844 128.11 76.844Z" fill="white"/>
<path d="M145.792 82.7379H110.428C104.181 82.7564 98.1955 85.2462 93.7781 89.6635C89.3608 94.0809 86.871 100.067 86.8525 106.314V145.921C86.8525 149.918 89.9579 153.318 93.9511 153.462C94.9407 153.498 95.9274 153.334 96.8523 152.98C97.7772 152.627 98.6212 152.09 99.3341 151.403C100.047 150.715 100.614 149.891 101.001 148.98C101.388 148.068 101.588 147.088 101.587 146.098V109.36C101.578 108.6 101.856 107.864 102.367 107.301C102.877 106.737 103.582 106.387 104.339 106.321C104.742 106.294 105.147 106.351 105.527 106.487C105.907 106.623 106.256 106.836 106.55 107.112C106.845 107.389 107.08 107.723 107.24 108.093C107.4 108.464 107.482 108.864 107.481 109.268V215.721C107.481 217.968 108.374 220.123 109.963 221.712C111.552 223.3 113.707 224.193 115.954 224.193C118.201 224.193 120.356 223.3 121.945 221.712C123.534 220.123 124.427 217.968 124.427 215.721V163.168C124.414 162.217 124.76 161.296 125.398 160.59C126.035 159.883 126.916 159.444 127.863 159.359C128.368 159.326 128.873 159.396 129.349 159.566C129.825 159.736 130.261 160.002 130.629 160.347C130.998 160.693 131.292 161.11 131.492 161.574C131.692 162.038 131.795 162.538 131.794 163.043V215.721C131.794 217.968 132.687 220.123 134.276 221.712C135.865 223.3 138.02 224.193 140.267 224.193C142.514 224.193 144.669 223.3 146.258 221.712C147.847 220.123 148.739 217.968 148.739 215.721V109.36C148.73 108.6 149.008 107.864 149.519 107.301C150.029 106.737 150.733 106.387 151.491 106.321C151.894 106.294 152.298 106.351 152.679 106.487C153.059 106.623 153.407 106.836 153.702 107.112C153.997 107.389 154.232 107.723 154.392 108.093C154.552 108.464 154.634 108.864 154.633 109.268V145.929C154.633 149.925 157.739 153.326 161.732 153.469C162.722 153.505 163.709 153.341 164.635 152.987C165.56 152.633 166.404 152.096 167.117 151.407C167.83 150.719 168.397 149.894 168.784 148.982C169.17 148.07 169.369 147.089 169.368 146.098V106.314C169.35 100.067 166.86 94.0809 162.442 89.6635C158.025 85.2462 152.039 82.7564 145.792 82.7379Z" fill="white"/>
</g>
<defs>
<clipPath id="clip0">
<rect x="33.8069" y="35.5862" width="188.607" height="188.607" fill="white"/>
</clipPath>
</defs>
</svg>
