<svg width="258" height="258" viewBox="0 0 258 258" fill="none" xmlns="http://www.w3.org/2000/svg">
<path d="M258 129C258 200.245 200.245 258 129 258C57.7553 258 0 200.245 0 129C0 57.7553 57.7553 0 129 0C200.245 0 258 57.7553 258 129Z" fill="#E75138"/>
<path d="M99.2711 179.566C106.518 179.566 112.394 173.293 112.394 165.556C112.394 157.819 106.518 151.546 99.2711 151.546C92.0238 151.546 86.1487 157.819 86.1487 165.556C86.1487 173.293 92.0238 179.566 99.2711 179.566Z" fill="white"/>
<path d="M160.509 179.566C167.756 179.566 173.631 173.293 173.631 165.556C173.631 157.819 167.756 151.546 160.509 151.546C153.261 151.546 147.386 157.819 147.386 165.556C147.386 173.293 153.261 179.566 160.509 179.566Z" fill="white"/>
<path d="M129 32.0276C87.2197 32.0276 53.3794 37.0766 53.3794 72.4199V173.401C53.3794 182.287 57.0659 190.264 62.832 195.818V213.793C62.832 219.347 67.0856 223.891 72.2846 223.891H81.7372C86.9361 223.891 91.1897 219.347 91.1897 213.793V203.695H166.81V213.793C166.81 219.347 171.064 223.891 176.263 223.891H185.716C190.915 223.891 195.168 219.347 195.168 213.793V195.818C200.934 190.264 204.621 182.287 204.621 173.401V72.4199C204.621 37.0766 170.781 32.0276 129 32.0276ZM182.502 62.2208H75.4984C80.6974 56.8688 94.12 52.2237 129 52.2237C163.88 52.2237 177.303 56.8688 182.502 62.2208ZM185.716 82.417V112.812H72.2846V82.417H185.716ZM182.502 180.772L179.76 183.499H78.2397L75.4984 180.772C74.4989 179.862 73.6944 178.732 73.1399 177.46C72.5853 176.188 72.2936 174.804 72.2846 173.401V133.008H185.716V173.401C185.716 177.137 183.731 179.661 182.502 180.772Z" fill="white"/>
</svg>
