<svg width="106" height="106" viewBox="0 0 106 106" fill="none" xmlns="http://www.w3.org/2000/svg">
<path d="M53 23.1875C59.4031 23.1875 64.5938 17.9968 64.5938 11.5938C64.5938 5.1907 59.4031 0 53 0C46.5969 0 41.4062 5.1907 41.4062 11.5938C41.4062 17.9968 46.5969 23.1875 53 23.1875Z" fill="#783424"/>
<path d="M62.9375 26.5H43.0625C39.5516 26.5104 36.1874 27.9097 33.7048 30.3923C31.2222 32.8749 29.8229 36.2391 29.8125 39.75V62.01C29.8125 64.2563 31.5578 66.1672 33.802 66.2479C34.3582 66.2682 34.9127 66.1762 35.4325 65.9774C35.9523 65.7785 36.4267 65.477 36.8273 65.0906C37.2279 64.7043 37.5465 64.2412 37.7641 63.729C37.9817 63.2168 38.0938 62.6659 38.0937 62.1094V41.4621C38.0885 41.0349 38.2449 40.6214 38.5318 40.3046C38.8186 39.9878 39.2146 39.7912 39.6403 39.7541C39.8668 39.7391 40.0941 39.7708 40.3078 39.8473C40.5216 39.9237 40.7174 40.0434 40.883 40.1987C41.0486 40.354 41.1805 40.5417 41.2705 40.7502C41.3606 40.9586 41.4067 41.1833 41.4062 41.4104V101.238C41.4062 102.501 41.9079 103.712 42.8009 104.605C43.6939 105.498 44.9051 106 46.168 106C47.4309 106 48.642 105.498 49.535 104.605C50.428 103.712 50.9297 102.501 50.9297 101.238V71.7032C50.9224 71.1686 51.1173 70.6509 51.4755 70.2539C51.8337 69.8569 52.3287 69.61 52.8613 69.5625C53.1446 69.5435 53.4288 69.5829 53.6962 69.6784C53.9636 69.7739 54.2086 69.9234 54.4157 70.1176C54.6229 70.3117 54.788 70.5465 54.9006 70.8071C55.0132 71.0678 55.0709 71.3489 55.0703 71.6328V101.238C55.0703 102.501 55.572 103.712 56.465 104.605C57.358 105.498 58.5691 106 59.832 106C61.0949 106 62.3061 105.498 63.1991 104.605C64.0921 103.712 64.5937 102.501 64.5937 101.238V41.4621C64.5885 41.0349 64.7449 40.6214 65.0318 40.3046C65.3186 39.9878 65.7146 39.7912 66.1403 39.7541C66.3668 39.7391 66.594 39.7708 66.8078 39.8473C67.0216 39.9237 67.2174 40.0434 67.383 40.1987C67.5486 40.354 67.6805 40.5417 67.7705 40.7502C67.8606 40.9586 67.9067 41.1833 67.9062 41.4104V62.0141C67.9062 64.2604 69.6515 66.1713 71.8957 66.2521C72.4522 66.2724 73.0071 66.1803 73.5272 65.9812C74.0473 65.7821 74.5219 65.4801 74.9225 65.0933C75.3232 64.7066 75.6418 64.243 75.8591 63.7303C76.0765 63.2176 76.1881 62.6663 76.1875 62.1094V39.75C76.1771 36.2391 74.7778 32.8749 72.2952 30.3923C69.8126 27.9097 66.4484 26.5104 62.9375 26.5Z" fill="#783424"/>
</svg>
