<svg width="453" height="735" viewBox="0 0 453 735" fill="none" xmlns="http://www.w3.org/2000/svg">
<path d="M279.18 670.604C278.018 688.089 279.616 677.829 278.309 734.329C138.711 621.041 23.2269 497.493 2.30903 318.458C-11.2004 202.135 34.7027 105.609 136.532 40.7288C178.658 13.8518 225.288 -1.17623 276.42 0.991273C307.216 43.3298 294.578 89.5698 289.058 135.232C280.924 157.918 259.134 163.409 240.831 173.38C180.983 206.037 157.45 256.034 170.233 323.226C181.999 385.65 214.684 437.526 252.888 486.511C266.833 504.429 284.991 519.602 290.656 543.155C296.031 586.65 303.004 630 279.18 670.604Z" fill="#E75138"/>
<path d="M279.18 670.604C278.309 623.208 277.437 575.957 276.566 528.561C255.067 496.048 263.928 469.027 290.656 444.317C319.128 417.874 348.471 392.297 366.484 356.75C407.593 276.119 389.145 214.707 309.976 171.068C297.774 164.276 283.538 163.843 276.42 149.971C276.42 101.419 276.275 49.5433 276.275 0.991272C398.732 3.73677 485.89 62.8373 532.229 173.235C585.105 299.095 544.286 412.527 459.597 508.62C406.721 568.876 339.9 616.995 279.18 670.604Z" fill="#CE9966"/>
<path d="M238.652 156.907C262.766 147.948 289.494 147.514 313.898 155.606C358.349 170.056 392.631 198.234 401.782 249.242C420.521 354.005 350.214 416.573 276.711 476.107C276.711 493.736 276.711 511.221 276.711 528.705C202.336 467.293 155.416 389.118 150.623 293.17C147.136 223.666 180.111 178.582 238.652 156.907Z" fill="#FEFEFE"/>
<path d="M278.421 315.857C300.02 315.857 317.531 297.483 317.531 274.819C317.531 252.154 300.02 233.781 278.421 233.781C256.821 233.781 239.31 252.154 239.31 274.819C239.31 297.483 256.821 315.857 278.421 315.857Z" fill="#CE9966"/>
</svg>
