<svg width="39" height="56" viewBox="0 0 39 56" fill="none" xmlns="http://www.w3.org/2000/svg">
<path d="M19.7871 50.6099C19.7095 51.9102 19.8188 51.1469 19.7307 55.3509C10.2381 46.9123 2.38396 37.7296 0.963947 24.4081C0.0442852 15.7509 3.1662 8.56657 10.0901 3.74123C12.9548 1.73899 16.1225 0.622793 19.6038 0.783893C21.6969 3.93302 20.8406 7.37366 20.4636 10.7568C19.9104 12.4445 18.4305 12.8549 17.1831 13.5952C13.1122 16.0398 11.5113 19.7618 12.3804 24.761C13.1803 29.4061 15.4037 33.2648 18.0182 36.9126C18.9661 38.2435 20.2029 39.3751 20.5869 41.1318C20.9358 44.3615 21.4079 47.5874 19.7871 50.6099Z" fill="#D61E00"/>
<path d="M19.7869 50.6096C19.7305 47.0807 19.6706 43.5672 19.6107 40.0384C18.1484 37.6219 18.751 35.6081 20.5692 33.7708C22.5036 31.8031 24.5015 29.9006 25.7242 27.2501C28.5184 21.2511 27.264 16.6828 21.8835 13.4416C21.0519 12.9391 20.0864 12.9046 19.6002 11.8728C19.6002 8.25955 19.6002 4.40083 19.6002 0.787598C27.9265 0.99089 33.8532 5.39045 37.0068 13.6027C40.6009 22.9695 37.8243 31.408 32.0738 38.5578C28.4621 43.0379 23.9166 46.6205 19.7869 50.6096Z" fill="#CE9966"/>
<path d="M17.0308 12.3867C18.6747 11.716 20.4798 11.6768 22.1471 12.2755C25.1703 13.3533 27.503 15.4476 28.1372 19.245C29.4128 27.0392 24.6136 31.6958 19.6347 36.1222V40.0347C14.5643 35.4817 11.3719 29.6628 11.0477 22.5246C10.8081 17.354 13.0526 13.9977 17.0308 12.3867Z" fill="#FEFEFE"/>
<path d="M19.5895 24.2125C21.1385 24.2125 22.3943 22.8455 22.3943 21.1591C22.3943 19.4728 21.1385 18.1057 19.5895 18.1057C18.0404 18.1057 16.7847 19.4728 16.7847 21.1591C16.7847 22.8455 18.0404 24.2125 19.5895 24.2125Z" fill="#D61E00"/>
</svg>
