<svg width="258" height="258" viewBox="0 0 258 258" fill="none" xmlns="http://www.w3.org/2000/svg">
<path d="M258 129C258 200.245 200.245 258 129 258C57.7553 258 0 200.245 0 129C0 57.7553 57.7553 0 129 0C200.245 0 258 57.7553 258 129Z" fill="#E75138"/>
<path d="M207.945 98.2236L195.673 61.3989C193.893 56.0387 190.469 51.3759 185.887 48.073C181.306 44.7701 175.8 42.995 170.152 43H88.3569C82.7088 42.995 77.2029 44.7701 72.6213 48.073C68.0397 51.3759 64.6155 56.0387 62.8353 61.3989L50.5634 98.2236C47.3035 99.5914 44.5196 101.89 42.5601 104.833C40.6006 107.775 39.5526 111.23 39.5474 114.766V159.619C39.5474 166.374 43.342 172.196 48.8679 175.255C48.7513 175.847 48.5181 176.385 48.5181 177.004V195.502C48.5181 197.881 49.4632 200.163 51.1455 201.845C52.8278 203.527 55.1096 204.472 57.4887 204.472H66.4594C68.8386 204.472 71.1203 203.527 72.8027 201.845C74.485 200.163 75.4301 197.881 75.4301 195.502V177.56H183.078V195.502C183.078 197.881 184.024 200.163 185.706 201.845C187.388 203.527 189.67 204.472 192.049 204.472H201.02C203.399 204.472 205.681 203.527 207.363 201.845C209.045 200.163 209.99 197.881 209.99 195.502V177.004C209.99 176.385 209.757 175.838 209.641 175.255C212.452 173.722 214.8 171.462 216.44 168.712C218.079 165.961 218.95 162.821 218.961 159.619V114.766C218.961 107.329 214.404 100.942 207.945 98.2236ZM57.4887 159.619V114.766H201.02L201.038 159.619H57.4887ZM88.3569 60.9414H170.143C174.009 60.9414 177.436 63.3994 178.656 67.0773L188.577 96.8242H129.254H69.9311L79.8437 67.0773C80.4389 65.2903 81.5815 63.736 83.1095 62.6347C84.6375 61.5334 86.4734 60.9409 88.3569 60.9414Z" fill="white"/>
<path d="M79.9153 150.648C87.3468 150.648 93.3713 144.624 93.3713 137.192C93.3713 129.761 87.3468 123.736 79.9153 123.736C72.4837 123.736 66.4592 129.761 66.4592 137.192C66.4592 144.624 72.4837 150.648 79.9153 150.648Z" fill="white"/>
<path d="M178.593 150.648C186.025 150.648 192.049 144.624 192.049 137.192C192.049 129.761 186.025 123.736 178.593 123.736C171.161 123.736 165.137 129.761 165.137 137.192C165.137 144.624 171.161 150.648 178.593 150.648Z" fill="white"/>
</svg>
