<svg width="54" height="53" viewBox="0 0 54 53" fill="none" xmlns="http://www.w3.org/2000/svg">
<path d="M27.0538 13.276C29.4787 13.276 31.4444 11.3087 31.4444 8.88185C31.4444 6.45501 29.4787 4.48767 27.0538 4.48767C24.6289 4.48767 22.6631 6.45501 22.6631 8.88185C22.6631 11.3087 24.6289 13.276 27.0538 13.276Z" fill="#783424"/>
<path d="M35.5935 17.9119C34.7373 17.055 33.2664 15.4731 30.4125 15.4731H24.8363C22.2541 15.4594 19.7586 14.5393 17.7847 12.873C15.8109 11.2068 14.484 8.90016 14.0352 6.3552C13.9578 5.8384 13.6985 5.36627 13.3041 5.02387C12.9096 4.68148 12.4059 4.49132 11.8838 4.48767C10.5446 4.48767 9.49087 5.6741 9.68845 6.99235C10.1665 9.83507 11.4292 12.4874 13.334 14.6499C15.2387 16.8123 17.7095 18.3988 20.4676 19.2301V46.2323C20.4676 47.4407 21.4555 48.4294 22.6629 48.4294C23.8703 48.4294 24.8582 47.4407 24.8582 46.2323V35.2469H29.2489V46.2323C29.2489 47.4407 30.2368 48.4294 31.4443 48.4294C32.6517 48.4294 33.6396 47.4407 33.6396 46.2323V22.1742L40.7525 29.2928C40.9558 29.4962 41.197 29.6576 41.4626 29.7676C41.7282 29.8777 42.0128 29.9344 42.3002 29.9344C42.5877 29.9344 42.8723 29.8777 43.1378 29.7676C43.4034 29.6576 43.6447 29.4962 43.8479 29.2928C44.0512 29.0894 44.2124 28.8479 44.3224 28.5821C44.4324 28.3164 44.489 28.0315 44.489 27.7438C44.489 27.4562 44.4324 27.1713 44.3224 26.9056C44.2124 26.6398 44.0512 26.3983 43.8479 26.1949L35.5935 17.9119Z" fill="#783424"/>
</svg>
