<svg width="38" height="55" viewBox="0 0 38 55" fill="none" xmlns="http://www.w3.org/2000/svg">
<path d="M19.1194 49.9957C19.0419 51.2967 19.1512 50.533 19.063 54.7392C9.56538 46.2962 1.70707 37.1086 0.286297 23.7801C-0.633855 15.1182 2.48972 7.93014 9.4173 3.10224C12.2835 1.09894 15.4529 -0.017848 18.9361 0.143338C21.0303 3.29413 20.1736 6.7366 19.7963 10.1215C19.2428 11.8101 17.7621 12.2207 16.5141 12.9614C12.441 15.4074 10.8393 19.1313 11.7089 24.1331C12.5092 28.7806 14.7337 32.6414 17.332 36.2911C18.2804 37.6228 19.5178 38.755 19.9021 40.5127C20.2688 43.744 20.7412 46.9716 19.1194 49.9957Z" fill="#F9B51C"/>
<path d="M19.1195 49.996C19.0631 46.4653 19.0031 42.9499 18.9432 39.4192C17.4801 37.0014 18.083 34.9866 19.9021 33.1483C21.8376 31.1795 23.8366 29.276 25.0599 26.6241C27.8556 20.6219 26.6006 16.0511 21.2171 12.8082C20.3851 12.3055 19.4191 12.2709 18.9326 11.2386C18.9326 7.6234 18.9326 3.76262 18.9326 0.147461C27.2633 0.350862 33.1932 4.75276 36.3485 12.9694C39.9445 22.3412 37.1664 30.7842 31.4128 37.9378C27.7992 42.4203 23.2513 46.0047 19.1195 49.996Z" fill="#CE9966"/>
<path d="M16.3626 11.7526C18.0074 11.0815 19.8135 11.0423 21.4816 11.6413C24.5065 12.7197 26.8403 14.8151 27.4749 18.6145C28.7512 26.4129 23.9495 31.0719 18.9679 35.5007V39.4152C13.8948 34.8598 10.7007 29.0379 10.3763 21.8958C10.1366 16.7225 12.3823 13.3645 16.3626 11.7526Z" fill="#FEFEFE"/>
<path d="M18.922 23.5842C20.4719 23.5842 21.7283 22.2165 21.7283 20.5293C21.7283 18.8422 20.4719 17.4745 18.922 17.4745C17.3721 17.4745 16.1157 18.8422 16.1157 20.5293C16.1157 22.2165 17.3721 23.5842 18.922 23.5842Z" fill="#F9B51C"/>
</svg>
