<svg width="39" height="56" viewBox="0 0 39 56" fill="none" xmlns="http://www.w3.org/2000/svg">
<path d="M19.6095 50.3836C19.5329 51.6846 19.6408 50.9209 19.5538 55.1271C10.1769 46.684 2.41845 37.4964 1.01574 24.1678C0.107286 15.506 3.19116 8.31781 10.0307 3.48989C12.8605 1.48658 15.9896 0.369786 19.4285 0.530972C21.496 3.68178 20.6502 7.12426 20.2778 10.5092C19.7313 12.1978 18.2694 12.6084 17.0373 13.3491C13.0159 15.7951 11.4345 19.519 12.2931 24.5209C13.0832 29.1684 15.2795 33.0292 17.8448 36.6789C18.7811 38.0106 20.0028 39.1428 20.3822 40.9005C20.7442 44.1319 21.2106 47.3595 19.6095 50.3836Z" fill="#00B250"/>
<path d="M19.3791 50.7927C19.3225 47.2316 19.2623 43.686 19.2022 40.1249C17.7336 37.6863 18.3387 35.6542 20.1647 33.8001C22.1075 31.8144 24.114 29.8945 25.3419 27.2199C28.1482 21.166 26.8884 16.556 21.4847 13.2852C20.6495 12.7781 19.6799 12.7433 19.1915 11.7021C19.1915 8.05582 19.1915 4.16186 19.1915 0.515625C27.5537 0.720774 33.5059 5.16051 36.6731 13.4478C40.2826 22.9001 37.4941 31.4157 31.7188 38.6308C28.0916 43.1518 23.5265 46.7671 19.3791 50.7927Z" fill="#CE9966"/>
<path d="M17.283 12.326C18.9463 11.6452 20.7726 11.6054 22.4594 12.2131C25.5182 13.3072 27.8783 15.4331 28.52 19.2877C29.8105 27.1994 24.955 31.9262 19.9175 36.4193V40.3908C14.7875 35.7691 11.5575 29.8626 11.2295 22.6167C10.9871 17.3682 13.258 13.9613 17.283 12.326Z" fill="#FEFEFE"/>
<path d="M19.9719 23.9205C21.731 23.9205 23.1571 22.5621 23.1571 20.8865C23.1571 19.2109 21.731 17.8525 19.9719 17.8525C18.2127 17.8525 16.7866 19.2109 16.7866 20.8865C16.7866 22.5621 18.2127 23.9205 19.9719 23.9205Z" fill="#00B250"/>
</svg>
