<svg width="326" height="430" viewBox="0 0 326 430" fill="none" xmlns="http://www.w3.org/2000/svg">
<path d="M163.228 392.708C162.548 402.94 163.482 396.936 162.718 430C81.0998 363.703 13.58 291.402 1.35001 186.629C-6.54853 118.556 20.2895 62.0682 79.8258 24.0996C104.456 8.37096 131.718 -0.423546 161.614 0.844893C179.619 25.6217 172.23 52.6818 169.003 79.4035C164.247 92.6799 151.507 95.8932 140.806 101.728C105.815 120.839 92.0558 150.098 99.5297 189.419C106.409 225.95 125.518 256.308 147.855 284.975C156.008 295.461 166.625 304.34 169.937 318.124C173.079 343.577 177.156 368.946 163.228 392.708Z" fill="#E75138"/>
<path d="M163.228 392.708C162.718 364.971 162.208 337.319 161.699 309.583C149.129 290.556 154.31 274.743 169.937 260.283C186.584 244.808 203.739 229.84 214.271 209.038C238.306 161.852 227.52 125.913 181.233 100.375C174.099 96.4006 165.776 96.1469 161.614 88.0289C161.614 59.6159 161.529 29.2579 161.529 0.84491C233.125 2.4516 284.084 37.0377 311.177 101.644C342.091 175.298 318.226 241.679 268.711 297.913C237.797 333.176 198.729 361.335 163.228 392.708Z" fill="#CE9966"/>
<path d="M139.532 92.0879C153.63 86.845 169.257 86.5913 183.526 91.3269C209.514 99.7831 229.558 116.273 234.909 146.123C245.865 207.431 204.758 244.047 161.784 278.887C161.784 289.203 161.784 299.435 161.784 309.667C118.299 273.728 90.8666 227.98 88.0639 171.83C86.0255 131.156 105.305 104.772 139.532 92.0879Z" fill="#FEFEFE"/>
<path d="M162.783 185.107C175.412 185.107 185.65 174.355 185.65 161.091C185.65 147.827 175.412 137.075 162.783 137.075C150.155 137.075 139.917 147.827 139.917 161.091C139.917 174.355 150.155 185.107 162.783 185.107Z" fill="#CE9966"/>
</svg>
